<svg width="48" height="48" viewBox="0 0 48 48" fill="none" xmlns="http://www.w3.org/2000/svg">
<path d="M32 2C32.5304 2 33.0391 2.21071 33.4142 2.58579C33.7893 2.96086 34 3.46957 34 4V5.998L44 6V18L39.96 17.998L45.494 33.19C45.8691 34.2058 46.0341 35.2871 45.979 36.3686C45.9239 37.45 45.6498 38.509 45.1733 39.4814C44.6969 40.4537 44.028 41.3193 43.2072 42.0255C42.3863 42.7318 41.4307 43.264 40.3981 43.5901C39.3655 43.9161 38.2775 44.0291 37.2 43.9223C36.1224 43.8154 35.0778 43.4909 34.1293 42.9685C33.1809 42.446 32.3484 41.7364 31.6822 40.8827C31.0161 40.029 30.5302 39.049 30.254 38.002H21.748C21.2928 39.7572 20.2552 41.3059 18.805 42.3944C17.3547 43.4828 15.5779 44.0466 13.7654 43.9934C11.9529 43.9402 10.2122 43.2731 8.82829 42.1015C7.44442 40.9298 6.4994 39.3229 6.148 37.544C5.50018 37.2061 4.95739 36.6971 4.57868 36.0722C4.19997 35.4474 3.99982 34.7307 4 34V24H22C22.0001 24.4899 22.1799 24.9627 22.5054 25.3287C22.8309 25.6948 23.2795 25.9287 23.766 25.986L24 26H28C28.4899 25.9999 28.9627 25.8201 29.3287 25.4946C29.6948 25.1691 29.9287 24.7205 29.986 24.234L30 24V6H24V2H32ZM14 32C12.9391 32 11.9217 32.4214 11.1716 33.1716C10.4214 33.9217 10 34.9391 10 36C10 37.0609 10.4214 38.0783 11.1716 38.8284C11.9217 39.5786 12.9391 40 14 40C15.0609 40 16.0783 39.5786 16.8284 38.8284C17.5786 38.0783 18 37.0609 18 36C18 34.9391 17.5786 33.9217 16.8284 33.1716C16.0783 32.4214 15.0609 32 14 32ZM38 32C36.9391 32 35.9217 32.4214 35.1716 33.1716C34.4214 33.9217 34 34.9391 34 36C34 37.0609 34.4214 38.0783 35.1716 38.8284C35.9217 39.5786 36.9391 40 38 40C39.0609 40 40.0783 39.5786 40.8284 38.8284C41.5786 38.0783 42 37.0609 42 36C42 34.9391 41.5786 33.9217 40.8284 33.1716C40.0783 32.4214 39.0609 32 38 32ZM20 6C20.5304 6 21.0391 6.21071 21.4142 6.58579C21.7893 6.96086 22 7.46957 22 8V22H4V8C4 7.46957 4.21071 6.96086 4.58579 6.58579C4.96086 6.21071 5.46957 6 6 6H20ZM40 10H34V14H40V10ZM18 10H8V12H18V10Z" fill="#D3D3D3"/>
</svg>
