<svg width="48" height="48" viewBox="0 0 48 48" fill="none" xmlns="http://www.w3.org/2000/svg">
<path d="M19.1279 17.46L20.1579 21.186C21.1279 24.696 21.6119 26.452 23.0379 27.25C24.4639 28.05 26.2739 27.578 29.8939 26.638L33.7339 25.638C37.3539 24.698 39.1639 24.228 39.9879 22.846C40.8119 21.462 40.3279 19.706 39.3559 16.196L38.3279 12.472C37.3579 8.96 36.8719 7.204 35.4479 6.406C34.0199 5.606 32.2099 6.078 28.5899 7.02L24.7499 8.016C21.1299 8.956 19.3199 9.428 18.4979 10.812C17.6739 12.194 18.1579 13.95 19.1279 17.46Z" fill="#D3D3D3"/>
<path d="M4.55389 10.494C4.60658 10.304 4.6962 10.1263 4.81761 9.97105C4.93903 9.81576 5.08987 9.68592 5.2615 9.58896C5.43313 9.492 5.62218 9.42982 5.81786 9.40598C6.01354 9.38214 6.212 9.39709 6.40189 9.45L9.80789 10.394C10.7106 10.6392 11.5343 11.114 12.1989 11.7723C12.8635 12.4305 13.3461 13.2497 13.5999 14.15L17.9019 29.722L18.2179 30.816C19.4934 31.2861 20.5683 32.1809 21.2619 33.35L21.8819 33.158L39.6219 28.548C39.8126 28.4984 40.0112 28.4868 40.2063 28.5139C40.4015 28.541 40.5894 28.6063 40.7593 28.706C40.9293 28.8057 41.0779 28.9379 41.1967 29.0951C41.3155 29.2523 41.4022 29.4313 41.4519 29.622C41.5015 29.8127 41.5131 30.0113 41.486 30.2064C41.4589 30.4016 41.3936 30.5895 41.2939 30.7594C41.1942 30.9294 41.0619 31.078 40.9048 31.1968C40.7476 31.3157 40.5686 31.4024 40.3779 31.452L22.7039 36.044L22.0439 36.248C22.0319 38.788 20.2779 41.112 17.6239 41.8C14.4439 42.628 11.1739 40.796 10.3219 37.712C9.46989 34.626 11.3579 31.454 14.5379 30.628C14.6946 30.5876 14.8527 30.5529 15.0119 30.524L10.7079 14.948C10.592 14.5478 10.3746 14.1845 10.0767 13.8932C9.77878 13.602 9.41058 13.3928 9.00789 13.286L5.59989 12.34C5.40997 12.2875 5.23226 12.1981 5.07691 12.0769C4.92155 11.9557 4.79159 11.8051 4.69446 11.6337C4.59732 11.4623 4.53491 11.2734 4.51079 11.0778C4.48667 10.8823 4.50132 10.6839 4.55389 10.494Z" fill="#D3D3D3"/>
</svg>
